<svg xmlns="http://www.w3.org/2000/svg" viewBox="0 0 32 32" width="32" height="32">
	<style>
		tspan { white-space:pre }
		.shp0 { fill: #666d89 } 
	</style>
	<path id="bubble" class="shp0" d="M16 7C10.04 7 5 10.21 5 14C5 14.28 5.22 14.5 5.5 14.5C5.78 14.5 6 14.28 6 14C6 10.8 10.67 8 16 8C16.28 8 16.5 7.78 16.5 7.5C16.5 7.22 16.28 7 16 7ZM16 2C7.16 2 0 7.37 0 14C0 18.13 2.78 21.77 7.01 23.93C7.01 23.95 7 23.97 7 24C7 25.79 5.66 27.72 5.07 28.74C5.07 28.74 5.07 28.74 5.07 28.74C5.03 28.85 5 28.97 5 29.09C5 29.59 5.41 30 5.91 30C6 30 6.17 29.97 6.16 29.99C9.29 29.48 12.23 26.6 12.91 25.77C13.91 25.92 14.94 26 16 26C24.84 26 32 20.63 32 14C32 7.37 24.84 2 16 2ZM16 24C15.08 24 14.14 23.93 13.2 23.79C13.11 23.78 13.01 23.77 12.91 23.77C12.32 23.77 11.75 24.04 11.37 24.5C10.94 25.02 9.72 26.19 8.28 27.04C8.67 26.15 8.98 25.14 9 24.11C9 24.05 9.01 23.98 9.01 23.93C9.01 23.17 8.59 22.49 7.92 22.14C4.21 20.25 2 17.21 2 14C2 8.49 8.28 4 16 4C23.72 4 30 8.49 30 14C30 19.51 23.72 24 16 24Z" />
</svg>