<svg xmlns="http://www.w3.org/2000/svg" viewBox="0 0 32 32" width="32" height="32">
	<style>
		tspan { white-space:pre }
		.shp0 { fill: #666d89 } 
	</style>
	<path id="bulb" class="shp0" d="M16 0C9.92 0 5 4.92 5 11C5 15.03 8.69 19.3 10.03 23.05C12.03 28.65 11.81 32 16 32C20.25 32 19.96 28.67 21.97 23.08C23.32 19.32 27 15 27 11C27 4.92 22.08 0 16 0ZM18.59 27.18L13.63 27.8C13.46 27.28 13.27 26.68 13.04 25.9C13.03 25.89 13.03 25.88 13.03 25.87L19.22 25.1C19.13 25.39 19.03 25.7 18.95 25.98C18.82 26.43 18.7 26.82 18.59 27.18ZM12.74 24.91C12.55 24.31 12.35 23.67 12.12 23L19.89 23C19.76 23.36 19.64 23.72 19.54 24.06L12.74 24.91ZM16 30C14.99 30 14.52 29.88 14 28.75L18.24 28.22C17.63 29.87 17.18 30 16 30ZM20.67 21L11.34 21C10.84 19.92 10.24 18.84 9.65 17.78C8.35 15.45 7 13.03 7 11C7 6.04 11.04 2 16 2C20.96 2 25 6.04 25 11C25 13.02 23.65 15.45 22.34 17.8C21.76 18.85 21.17 19.93 20.67 21ZM16 5C12.69 5 10 7.69 10 11C10 11.28 10.22 11.5 10.5 11.5C10.78 11.5 11 11.28 11 11C11 8.24 13.24 6 16 6C16.28 6 16.5 5.78 16.5 5.5C16.5 5.22 16.28 5 16 5Z" />
</svg>