<svg xmlns="http://www.w3.org/2000/svg" viewBox="0 0 32 32" width="32" height="32">
	<style>
		tspan { white-space:pre }
		.shp0 { fill: #666d89 } 
	</style>
	<path id="phone" class="shp0" d="M24 0L8 0C6.34 0 5 1.34 5 3L5 29C5 30.66 6.34 32 8 32L24 32C25.66 32 27 30.66 27 29L27 3C27 1.34 25.66 0 24 0ZM25 29C25 29.55 24.55 30 24 30L8 30C7.45 30 7 29.55 7 29L7 27L25 27L25 29ZM25 26L7 26L7 6L25 6L25 26ZM25 5L7 5L7 3C7 2.45 7.45 2 8 2L24 2C24.55 2 25 2.45 25 3L25 5ZM18 3.5C18 3.78 17.78 4 17.5 4L14.5 4C14.22 4 14 3.78 14 3.5L14 3.5C14 3.22 14.22 3 14.5 3L17.5 3C17.78 3 18 3.22 18 3.5L18 3.5ZM17 28.5C17 28.77 16.78 29 16.5 29L15.5 29C15.22 29 15 28.77 15 28.5L15 28.5C15 28.22 15.22 28 15.5 28L16.5 28C16.78 28 17 28.22 17 28.5L17 28.5Z" />
</svg>