<svg xmlns="http://www.w3.org/2000/svg" viewBox="0 0 32 32" width="32" height="32">
	<style>
		tspan { white-space:pre }
		.shp0 { fill: #666d89 } 
	</style>
	<path id="heart" class="shp0" d="M29.19 4.79C25.56 1.2 19.76 1.13 16 4.5C12.24 1.13 6.44 1.2 2.81 4.79C-0.93 8.49 -0.93 14.49 2.81 18.19C3.88 19.25 13.86 29.12 13.86 29.12C15.04 30.29 16.96 30.29 18.14 29.12C18.14 29.12 29.07 18.31 29.19 18.19C32.93 14.49 32.93 8.49 29.19 4.79ZM27.77 16.78L16.71 27.71C16.32 28.1 15.68 28.1 15.29 27.71L4.24 16.78C1.28 13.86 1.28 9.12 4.24 6.2C7.08 3.39 11.65 3.29 14.64 5.98L16 7.2L17.36 5.98C20.35 3.29 24.92 3.39 27.77 6.2C30.72 9.12 30.72 13.86 27.77 16.78ZM9.25 7.03C9.25 7.03 9.25 7.03 9.25 7.03C6.9 7.03 5 8.93 5 11.27L5 11.27C5 11.55 5.23 11.77 5.5 11.77C5.78 11.77 6 11.55 6 11.27L6 11.27C6 9.48 7.46 8.03 9.25 8.03L9.25 8.03C9.53 8.03 9.75 7.8 9.75 7.53C9.75 7.25 9.53 7.03 9.25 7.03Z" />
</svg>